# xmcd
#
# Track frame offsets:
#	182
#	11850
#	24590
#	34057
#	45312
#	57085
#	66682
#	77572
#	95507
#	109590
#	122087
#	134600
#	150760
#	163890
#	179780
#	196240
#	208366
#	251657
#
# Disc length: 4440 seconds
#
# Revision: 0
# Processed by: cddbd v1.5.1PL0 Copyright (c) Steve Scherf et al.
# Submitted via: dBpowerAMP V4.0
#
DISCID=00115612
DTITLE=Dick Brave - Dick This
DYEAR=1900
DGENRE=
TTITLE0=Get the party started
TTITLE1=Walk this way
TTITLE2=Sge's the most
TTITLE3=Take good care of my baby
TTITLE4=be the one for me
TTITLE5=20 flight rock
TTITLE6=Slippin' n Slidin'
TTITLE7=Freedom
TTITLE8=Buona Sera
TTITLE9=Teenager in love
TTITLE10=Black or White
TTITLE11=Hallelujah, i love her so
TTITLE12=Here i go
TTITLE13=Smokey Joe's Cafe
TTITLE14=Complicated
TTITLE15=Give it away
TTITLE16=They rimind me too much of you
TTITLE17=DATA
EXTD=
EXTT0=
EXTT1=
EXTT2=
EXTT3=
EXTT4=
EXTT5=
EXTT6=
EXTT7=
EXTT8=
EXTT9=
EXTT10=
EXTT11=
EXTT12=
EXTT13=
EXTT14=
EXTT15=
EXTT16=
EXTT17=
PLAYORDER=
